<svg id="Layer_1" data-name="Layer 1" xmlns="http://www.w3.org/2000/svg" xmlns:xlink="http://www.w3.org/1999/xlink" viewBox="0 0 48 48"><defs><style>.cls-1{fill:#272362;}.cls-2{fill:#fff;}.cls-3{fill:url(#linear-gradient);}.cls-4{fill:#4d91c6;}.cls-5{fill:#5889c7;}.cls-6{fill:#263a5c;}.cls-7{fill:#231f20;}.cls-8{fill:#2f7fbb;}.cls-9{fill:url(#linear-gradient-2);}.cls-10{fill:url(#linear-gradient-3);}.cls-11{fill:url(#linear-gradient-4);}.cls-12{fill:url(#linear-gradient-5);}.cls-13{fill:url(#linear-gradient-6);}.cls-14{fill:url(#linear-gradient-7);}.cls-15{fill:url(#linear-gradient-8);}.cls-16{fill:url(#linear-gradient-9);}.cls-17{fill:url(#linear-gradient-10);}.cls-18{fill:url(#linear-gradient-11);}.cls-19{fill:url(#linear-gradient-12);}.cls-20{fill:url(#linear-gradient-13);}.cls-21{fill:url(#linear-gradient-14);}.cls-22{fill:url(#linear-gradient-15);}.cls-23{fill:url(#linear-gradient-16);}.cls-24{fill:url(#linear-gradient-17);}.cls-25{fill:url(#linear-gradient-18);}.cls-26{fill:url(#linear-gradient-19);}.cls-27{fill:url(#linear-gradient-20);}.cls-28{fill:url(#linear-gradient-21);}.cls-29{fill:url(#linear-gradient-22);}.cls-30{fill:url(#linear-gradient-23);}.cls-31{fill:url(#linear-gradient-24);}.cls-32{fill:url(#linear-gradient-25);}.cls-33{fill:url(#linear-gradient-26);}.cls-34{fill:url(#linear-gradient-27);}.cls-35{fill:url(#linear-gradient-28);}.cls-36{fill:url(#linear-gradient-29);}.cls-37{fill:url(#linear-gradient-30);}.cls-38{fill:url(#linear-gradient-31);}.cls-39{fill:url(#linear-gradient-32);}.cls-40{fill:url(#linear-gradient-33);}.cls-41{fill:url(#linear-gradient-34);}.cls-42{fill:url(#linear-gradient-35);}.cls-43{fill:url(#linear-gradient-36);}.cls-44{fill:url(#linear-gradient-37);}</style><linearGradient id="linear-gradient" x1="19.75" y1="10.89" x2="28.8" y2="10.89" gradientUnits="userSpaceOnUse"><stop offset="0" stop-color="#fff"/><stop offset="0.61" stop-color="#939598"/><stop offset="0.96" stop-color="#a7a9ac"/></linearGradient><linearGradient id="linear-gradient-2" x1="24.72" y1="12.87" x2="25.51" y2="12.87" xlink:href="#linear-gradient"/><linearGradient id="linear-gradient-3" x1="26.22" y1="12.87" x2="27.01" y2="12.87" xlink:href="#linear-gradient"/><linearGradient id="linear-gradient-4" x1="27.73" y1="12.87" x2="28.51" y2="12.87" xlink:href="#linear-gradient"/><linearGradient id="linear-gradient-5" x1="24.75" y1="14.62" x2="25.53" y2="14.62" xlink:href="#linear-gradient"/><linearGradient id="linear-gradient-6" x1="26.25" y1="14.62" x2="27.04" y2="14.62" xlink:href="#linear-gradient"/><linearGradient id="linear-gradient-7" x1="27.76" y1="14.62" x2="28.54" y2="14.62" xlink:href="#linear-gradient"/><linearGradient id="linear-gradient-8" x1="24.78" y1="16.37" x2="25.56" y2="16.37" xlink:href="#linear-gradient"/><linearGradient id="linear-gradient-9" x1="26.28" y1="16.37" x2="27.07" y2="16.37" xlink:href="#linear-gradient"/><linearGradient id="linear-gradient-10" x1="27.78" y1="16.37" x2="28.57" y2="16.37" xlink:href="#linear-gradient"/><linearGradient id="linear-gradient-11" x1="24.8" y1="18.12" x2="25.59" y2="18.12" xlink:href="#linear-gradient"/><linearGradient id="linear-gradient-12" x1="26.31" y1="18.12" x2="27.1" y2="18.12" xlink:href="#linear-gradient"/><linearGradient id="linear-gradient-13" x1="27.81" y1="18.12" x2="28.6" y2="18.12" xlink:href="#linear-gradient"/><linearGradient id="linear-gradient-14" x1="24.83" y1="19.88" x2="25.62" y2="19.88" xlink:href="#linear-gradient"/><linearGradient id="linear-gradient-15" x1="26.34" y1="19.88" x2="27.13" y2="19.88" xlink:href="#linear-gradient"/><linearGradient id="linear-gradient-16" x1="27.84" y1="19.88" x2="28.63" y2="19.88" xlink:href="#linear-gradient"/><linearGradient id="linear-gradient-17" x1="20.06" y1="12.87" x2="20.85" y2="12.87" xlink:href="#linear-gradient"/><linearGradient id="linear-gradient-18" x1="21.57" y1="12.87" x2="22.36" y2="12.87" xlink:href="#linear-gradient"/><linearGradient id="linear-gradient-19" x1="23.07" y1="12.87" x2="23.86" y2="12.87" xlink:href="#linear-gradient"/><linearGradient id="linear-gradient-20" x1="20.09" y1="14.62" x2="20.88" y2="14.62" xlink:href="#linear-gradient"/><linearGradient id="linear-gradient-21" x1="21.6" y1="14.62" x2="22.39" y2="14.62" xlink:href="#linear-gradient"/><linearGradient id="linear-gradient-22" x1="23.1" y1="14.62" x2="23.89" y2="14.62" xlink:href="#linear-gradient"/><linearGradient id="linear-gradient-23" x1="20.12" y1="16.37" x2="20.91" y2="16.37" xlink:href="#linear-gradient"/><linearGradient id="linear-gradient-24" x1="21.63" y1="16.37" x2="22.41" y2="16.37" xlink:href="#linear-gradient"/><linearGradient id="linear-gradient-25" x1="23.13" y1="16.37" x2="23.92" y2="16.37" xlink:href="#linear-gradient"/><linearGradient id="linear-gradient-26" x1="20.15" y1="18.12" x2="20.94" y2="18.12" xlink:href="#linear-gradient"/><linearGradient id="linear-gradient-27" x1="21.66" y1="18.12" x2="22.44" y2="18.12" xlink:href="#linear-gradient"/><linearGradient id="linear-gradient-28" x1="23.16" y1="18.12" x2="23.95" y2="18.12" xlink:href="#linear-gradient"/><linearGradient id="linear-gradient-29" x1="20.18" y1="19.88" x2="20.97" y2="19.88" xlink:href="#linear-gradient"/><linearGradient id="linear-gradient-30" x1="20.18" y1="21.98" x2="20.97" y2="21.98" xlink:href="#linear-gradient"/><linearGradient id="linear-gradient-31" x1="21.68" y1="19.88" x2="22.47" y2="19.88" xlink:href="#linear-gradient"/><linearGradient id="linear-gradient-32" x1="21.68" y1="21.98" x2="22.47" y2="21.98" xlink:href="#linear-gradient"/><linearGradient id="linear-gradient-33" x1="23.19" y1="19.88" x2="23.98" y2="19.88" xlink:href="#linear-gradient"/><linearGradient id="linear-gradient-34" x1="23.27" y1="21.98" x2="24.06" y2="21.98" xlink:href="#linear-gradient"/><linearGradient id="linear-gradient-35" x1="24.79" y1="21.98" x2="25.58" y2="21.98" xlink:href="#linear-gradient"/><linearGradient id="linear-gradient-36" x1="26.3" y1="21.98" x2="27.09" y2="21.98" xlink:href="#linear-gradient"/><linearGradient id="linear-gradient-37" x1="27.88" y1="21.98" x2="28.67" y2="21.98" xlink:href="#linear-gradient"/></defs><path class="cls-1" d="M38.67,9.32a17.34,17.34,0,0,0-5.15-5.05,17.74,17.74,0,0,0-19,0A17.29,17.29,0,0,0,9.32,9.33a16.9,16.9,0,0,0,2.39,21.55,56.74,56.74,0,0,1,7.36,8.93l4.41,6.47a.73.73,0,0,0,1,0l4.42-6.48a57.2,57.2,0,0,1,7.36-8.93A16.89,16.89,0,0,0,38.67,9.32Zm-2.35,10A12.19,12.19,0,0,1,24.63,30.51a12.14,12.14,0,0,1-13-11.84A12.1,12.1,0,0,1,24,6.81,12.07,12.07,0,0,1,36.32,19.33Z"/><path class="cls-2" d="M24,6.81A12.1,12.1,0,0,0,11.66,18.67a12.14,12.14,0,0,0,13,11.84A12.19,12.19,0,0,0,36.32,19.33,12.07,12.07,0,0,0,24,6.81Zm-4.25,3,4.53-.68,4.52.69v16l-4.46,1.34v0l-.06,0-.07,0v0l-4.4-1.34-.06-14.59Zm10,17-.89.31-3.52,1.2-.62.23h0c-.3,0-.61,0-.89,0l-.14-.05L23,28.22l-1.7-.59-1.7-.58-.86-.29c-.24-.2-.5-.37-.74-.58.32,0,.63,0,.95,0l.85.28,3.4,1.18.85.29a7.57,7.57,0,0,0,1.15-.22l1.78-.61,1.76-.61.87-.31c.33,0,.65,0,1,0C30.3,26.4,30,26.57,29.77,26.77Z"/><polygon class="cls-3" points="28.8 9.8 28.8 11.26 24.4 11.98 24.3 11.99 24.27 11.99 19.75 11.25 19.75 9.79 24.28 10.6 24.34 10.59 28.8 9.8"/><polygon class="cls-4" points="24.4 11.98 24.34 27.18 24.34 27.21 24.28 27.19 24.21 27.18 19.81 25.84 19.75 11.25 24.27 11.99 24.3 11.99 24.4 11.98"/><polygon class="cls-4" points="24.34 10.59 24.28 10.6 19.75 9.79 24.34 10.59"/><polygon class="cls-5" points="28.8 9.8 24.34 10.59 24.28 10.6 19.75 9.79 24.28 9.11 28.8 9.8"/><path class="cls-6" d="M30.54,26.18c-.24.22-.51.39-.77.59l-.89.31-3.52,1.2-.62.23h0c-.3,0-.61,0-.89,0l-.14-.05L23,28.22l-1.7-.59-1.7-.58-.86-.29c-.24-.2-.5-.37-.74-.58.32,0,.63,0,.95,0l.85.28,3.4,1.18.85.29a7.57,7.57,0,0,0,1.15-.22l1.78-.61,1.76-.61.87-.31C29.89,26.18,30.21,26.16,30.54,26.18Z"/><polygon class="cls-7" points="24.75 28.52 24.69 28.52 24.74 28.51 24.75 28.52"/><polygon class="cls-8" points="28.8 11.26 28.8 25.84 24.34 27.18 24.28 27.19 24.21 27.21 24.21 27.18 24.27 11.99 24.3 11.99 24.4 11.98 28.8 11.26"/><rect class="cls-9" x="24.72" y="12.29" width="0.79" height="1.16"/><rect class="cls-10" x="26.22" y="12.29" width="0.79" height="1.16"/><rect class="cls-11" x="27.73" y="12.29" width="0.79" height="1.16"/><rect class="cls-12" x="24.75" y="14.04" width="0.79" height="1.16"/><rect class="cls-13" x="26.25" y="14.04" width="0.79" height="1.16"/><rect class="cls-14" x="27.76" y="14.04" width="0.79" height="1.16"/><rect class="cls-15" x="24.78" y="15.79" width="0.79" height="1.16"/><rect class="cls-16" x="26.28" y="15.79" width="0.79" height="1.16"/><rect class="cls-17" x="27.78" y="15.79" width="0.79" height="1.16"/><rect class="cls-18" x="24.8" y="17.55" width="0.79" height="1.16"/><rect class="cls-19" x="26.31" y="17.55" width="0.79" height="1.16"/><rect class="cls-20" x="27.81" y="17.55" width="0.79" height="1.16"/><rect class="cls-21" x="24.83" y="19.3" width="0.79" height="1.16"/><rect class="cls-22" x="26.34" y="19.3" width="0.79" height="1.16"/><rect class="cls-23" x="27.84" y="19.3" width="0.79" height="1.16"/><rect class="cls-24" x="20.06" y="12.29" width="0.79" height="1.16"/><rect class="cls-25" x="21.57" y="12.29" width="0.79" height="1.16"/><rect class="cls-26" x="23.07" y="12.29" width="0.79" height="1.16"/><rect class="cls-27" x="20.09" y="14.04" width="0.79" height="1.16"/><rect class="cls-28" x="21.6" y="14.04" width="0.79" height="1.16"/><rect class="cls-29" x="23.1" y="14.04" width="0.79" height="1.16"/><rect class="cls-30" x="20.12" y="15.79" width="0.79" height="1.16"/><rect class="cls-31" x="21.63" y="15.79" width="0.79" height="1.16"/><rect class="cls-32" x="23.13" y="15.79" width="0.79" height="1.16"/><rect class="cls-33" x="20.15" y="17.55" width="0.79" height="1.16"/><rect class="cls-34" x="21.66" y="17.55" width="0.79" height="1.16"/><rect class="cls-35" x="23.16" y="17.55" width="0.79" height="1.16"/><rect class="cls-36" x="20.18" y="19.3" width="0.79" height="1.16"/><rect class="cls-37" x="20.18" y="21.4" width="0.79" height="1.16"/><rect class="cls-38" x="21.68" y="19.3" width="0.79" height="1.16"/><rect class="cls-39" x="21.68" y="21.4" width="0.79" height="1.16"/><rect class="cls-40" x="23.19" y="19.3" width="0.79" height="1.16"/><rect class="cls-41" x="23.27" y="21.4" width="0.79" height="1.16"/><rect class="cls-42" x="24.79" y="21.4" width="0.79" height="1.16"/><rect class="cls-43" x="26.3" y="21.4" width="0.79" height="1.16"/><rect class="cls-44" x="27.88" y="21.4" width="0.79" height="1.16"/></svg>