<svg id="Layer_1" data-name="Layer 1" xmlns="http://www.w3.org/2000/svg" xmlns:xlink="http://www.w3.org/1999/xlink" viewBox="0 0 48 48"><defs><style>.cls-1{fill:#272362;}.cls-2{fill:#865430;}.cls-3{fill:#2e4143;}.cls-4{fill:#5d6868;}.cls-5{fill:#981e20;}.cls-6{fill:#e95440;}.cls-7{fill:url(#linear-gradient);}.cls-8{fill:url(#linear-gradient-2);}.cls-9{fill:url(#linear-gradient-3);}.cls-10{fill:url(#linear-gradient-4);}.cls-11{fill:url(#linear-gradient-5);}.cls-12{fill:url(#linear-gradient-6);}.cls-13{fill:url(#linear-gradient-7);}.cls-14{fill:url(#linear-gradient-8);}.cls-15{fill:#1f419a;}.cls-16{fill:#1a3d21;}</style><linearGradient id="linear-gradient" x1="17.29" y1="19.43" x2="19.66" y2="19.43" gradientUnits="userSpaceOnUse"><stop offset="0" stop-color="#fff"/><stop offset="0.61" stop-color="#939598"/><stop offset="0.96" stop-color="#a7a9ac"/></linearGradient><linearGradient id="linear-gradient-2" x1="21.11" y1="19.43" x2="23.48" y2="19.43" xlink:href="#linear-gradient"/><linearGradient id="linear-gradient-3" x1="25.71" y1="15.07" x2="26.67" y2="15.07" xlink:href="#linear-gradient"/><linearGradient id="linear-gradient-4" x1="27.8" y1="13.53" x2="28.76" y2="13.53" xlink:href="#linear-gradient"/><linearGradient id="linear-gradient-5" x1="17.29" y1="20.55" x2="19.66" y2="20.55" xlink:href="#linear-gradient"/><linearGradient id="linear-gradient-6" x1="21.11" y1="20.55" x2="23.48" y2="20.55" xlink:href="#linear-gradient"/><linearGradient id="linear-gradient-7" x1="25.1" y1="13.32" x2="27.28" y2="13.32" xlink:href="#linear-gradient"/><linearGradient id="linear-gradient-8" x1="27.17" y1="11.87" x2="29.35" y2="11.87" xlink:href="#linear-gradient"/></defs><path class="cls-1" d="M38.67,9.32a17.34,17.34,0,0,0-5.15-5.05,17.74,17.74,0,0,0-19,0A17.29,17.29,0,0,0,9.32,9.33a16.9,16.9,0,0,0,2.39,21.55,56.74,56.74,0,0,1,7.36,8.93l4.41,6.47a.73.73,0,0,0,1,0l4.42-6.48a57.2,57.2,0,0,1,7.36-8.93A16.89,16.89,0,0,0,38.67,9.32Zm-2.35,10A12.19,12.19,0,0,1,24.63,30.51a12.14,12.14,0,0,1-13-11.84A12.1,12.1,0,0,1,24,6.81,12.07,12.07,0,0,1,36.32,19.33Z"/><ellipse class="cls-2" cx="23.23" cy="22.03" rx="10.23" ry="2.42"/><polygon class="cls-3" points="24.45 14.96 24.45 18.11 20.14 18.11 20.17 18.09 24.45 14.96"/><polygon class="cls-3" points="20.14 15.19 20.14 18.19 16.31 18.19 16.42 18.11 20.14 15.19"/><polygon class="cls-4" points="19.84 15.93 17.12 18.05 19.84 18.05 19.84 15.93"/><polygon class="cls-4" points="23.83 15.98 21.11 18.11 23.83 18.11 23.83 15.98"/><polygon class="cls-5" points="29.35 18.05 29.35 21.87 16.31 21.92 16.31 18.11 16.42 18.11 20.14 18.09 20.17 18.09 21.14 18.09 23.83 18.08 24.45 18.08 25.71 18.07 26.67 18.06 27.8 18.06 28.76 18.05 29.35 18.05"/><polygon class="cls-6" points="28.93 21.38 16.73 21.42 16.73 18.63 28.93 18.59 28.93 21.38"/><rect class="cls-1" x="25.71" y="14.17" width="0.95" height="3.9"/><rect class="cls-1" x="27.8" y="12.76" width="0.95" height="5.31"/><rect class="cls-7" x="17.29" y="19" width="2.37" height="0.85"/><rect class="cls-8" x="21.11" y="19" width="2.37" height="0.85"/><rect class="cls-9" x="25.71" y="14.65" width="0.95" height="0.85"/><rect class="cls-10" x="27.8" y="13.11" width="0.95" height="0.85"/><rect class="cls-11" x="17.29" y="20.12" width="2.37" height="0.85"/><rect class="cls-12" x="21.11" y="20.12" width="2.37" height="0.85"/><rect class="cls-5" x="28.11" y="14.87" width="0.35" height="1.25"/><rect class="cls-5" x="28.11" y="16.07" width="0.35" height="1.25"/><rect class="cls-5" x="26.02" y="15.65" width="0.35" height="1.25"/><rect class="cls-5" x="26.02" y="16.68" width="0.35" height="1.25"/><polygon class="cls-13" points="27.28 14.26 25.1 14.26 26.19 12.37 27.28 14.26"/><polygon class="cls-1" points="26.19 12.68 25.41 14.04 26.98 14.04 26.19 12.68"/><polygon class="cls-14" points="29.35 12.81 27.17 12.81 28.26 10.93 29.35 12.81"/><polygon class="cls-1" points="28.26 11.28 27.47 12.64 29.04 12.64 28.26 11.28"/><path class="cls-15" d="M23.51,22.29c0,.06-.61,1.23-3.05.92s-2.1-.53-3.34-.15c0,0,.86-1.19,3.15-.63S23.44,22.33,23.51,22.29Z"/><path class="cls-15" d="M21.91,23.31s-.39.8-2,.6-1.36-.34-2.16-.1c0,0,.55-.77,2-.4A2.65,2.65,0,0,0,21.91,23.31Z"/><path class="cls-15" d="M28.09,22.69s-.39.8-2,.6S24.75,23,24,23.19c0,0,.55-.77,2-.4A2.65,2.65,0,0,0,28.09,22.69Z"/><path class="cls-16" d="M30.82,20.91v.72l0,.58h-.34V20.94s-1.34-1,.31-2.91C30.82,18,32.18,19.94,30.82,20.91Z"/><path class="cls-16" d="M15.51,21.65v.92h-.24v-.9s-.94-.73.22-2.06C15.51,19.61,16.48,21,15.51,21.65Z"/></svg>