<svg id="Layer_1" data-name="Layer 1" xmlns="http://www.w3.org/2000/svg" xmlns:xlink="http://www.w3.org/1999/xlink" viewBox="0 0 48 48"><defs><style>.cls-1{fill:url(#radial-gradient);}.cls-2{fill:#d18b3c;}.cls-3{fill:#1a3d21;}.cls-4{fill:#272362;}.cls-5{fill:#fff;}</style><radialGradient id="radial-gradient" cx="26.52" cy="13.1" r="1.72" gradientUnits="userSpaceOnUse"><stop offset="0" stop-color="#fff200"/><stop offset="1" stop-color="#f15a29"/></radialGradient></defs><path class="cls-1" d="M28.26,13.1a1.74,1.74,0,1,1-1.73-1.71A1.72,1.72,0,0,1,28.26,13.1Z"/><path class="cls-2" d="M26.6,8.9v1.58a.2.2,0,0,1-.19.2.21.21,0,0,1-.21-.2V8.9a.21.21,0,0,1,.21-.21A.2.2,0,0,1,26.6,8.9Z"/><path class="cls-2" d="M29.35,9.16,28,11a.21.21,0,0,1-.16.08.16.16,0,0,1-.12,0,.19.19,0,0,1-.05-.27L29,8.94a.19.19,0,0,1,.27,0A.18.18,0,0,1,29.35,9.16Z"/><path class="cls-2" d="M30.43,11.51a.21.21,0,0,1-.12.25l-.16.05-1.37.47h-.06a.22.22,0,0,1-.2-.13.21.21,0,0,1,.13-.26l1.52-.51h.1A.18.18,0,0,1,30.43,11.51Z"/><path class="cls-2" d="M31,14.41a.21.21,0,0,1-.19.12h-.07l-.45-.17-1.51-.57h0l-.1,0a.2.2,0,0,1-.12-.26.21.21,0,0,1,.26-.11l.28.1,1.2.47.33.12.26.1A.19.19,0,0,1,31,14.41Z"/><path class="cls-2" d="M29,16.16a.25.25,0,0,1-.11,0h0a.2.2,0,0,1-.15-.07l-1-1.25a.2.2,0,1,1,.31-.24l1,1.25a.08.08,0,0,1,0,0A.19.19,0,0,1,29,16.16Z"/><path class="cls-2" d="M26.8,17.31a.19.19,0,0,1-.18.2h0a.2.2,0,0,1-.2-.19l-.08-2a.2.2,0,1,1,.39,0Z"/><path class="cls-2" d="M25.24,15l-.88,1.33a.18.18,0,0,1-.17.09.19.19,0,0,1-.1,0A.2.2,0,0,1,24,16.1l.88-1.33a.22.22,0,0,1,.28-.06A.19.19,0,0,1,25.24,15Z"/><path class="cls-2" d="M24.32,13.68a.19.19,0,0,1-.12.25l-.78.3-1.11.43-.07,0a.23.23,0,0,1-.2-.12.21.21,0,0,1,.11-.26l1.17-.45.74-.28A.19.19,0,0,1,24.32,13.68Z"/><path class="cls-2" d="M24.24,12.34a.23.23,0,0,1-.2.15H24l-1.57-.38h0a.22.22,0,0,1-.13-.24.19.19,0,0,1,.24-.14l1.56.39A.2.2,0,0,1,24.24,12.34Z"/><path class="cls-2" d="M25,11.2a.21.21,0,0,1-.13.05.23.23,0,0,1-.15-.07L23.23,9.53a.2.2,0,0,1,0-.28.21.21,0,0,1,.29,0L25,10.93A.18.18,0,0,1,25,11.2Z"/><path class="cls-3" d="M19.3,15.32v.18l0,1.4v.53h-.62V15.37l-.07-.06c-.38-.31-2-2,.63-4.69C19.3,10.62,21.75,13.73,19.3,15.32Z"/><path class="cls-3" d="M22.67,16.59l-.26.2.05,1.58v.53h-.62V16.84a2.24,2.24,0,0,1-.62-.74c-.42-.77-.62-2.13,1.18-4a6.16,6.16,0,0,1,.91,1.75c0,.12.07.25.1.38A2.24,2.24,0,0,1,22.67,16.59Z"/><path class="cls-3" d="M30.86,17.68l0,1.23v.42h-.48V17.72s-1.86-1.31.43-3.69C30.86,14,32.76,16.45,30.86,17.68Z"/><path class="cls-4" d="M38.67,9.56a17.34,17.34,0,0,0-5.15-5.05,17.74,17.74,0,0,0-19,0A17.29,17.29,0,0,0,9.32,9.57a16.9,16.9,0,0,0,2.39,21.55,56.74,56.74,0,0,1,7.36,8.93l4.41,6.47a.73.73,0,0,0,1,0L28.94,40a57.2,57.2,0,0,1,7.36-8.93A16.89,16.89,0,0,0,38.67,9.56Zm-2.35,10A12.19,12.19,0,0,1,24.63,30.75a12.14,12.14,0,0,1-13-11.84A12.1,12.1,0,0,1,24,7.05,12.07,12.07,0,0,1,36.32,19.57Z"/><path class="cls-5" d="M24,7.05A12.1,12.1,0,0,0,11.66,18.91a12.14,12.14,0,0,0,13,11.84A12.19,12.19,0,0,0,36.32,19.57,12.07,12.07,0,0,0,24,7.05Zm6.89,7.11a.19.19,0,0,1,.12.25.21.21,0,0,1-.19.12h-.07l-.45-.17-1.51-.57h0l-.1,0a.2.2,0,0,1-.12-.26.21.21,0,0,1,.26-.11l.28.1,1.2.47.33.12Zm-1.86,2a.25.25,0,0,1-.11,0h0a.2.2,0,0,1-.15-.07l-1-1.25a.2.2,0,1,1,.31-.24l1,1.25a.08.08,0,0,1,0,0A.19.19,0,0,1,29,16.16Zm1.24-4.77a.18.18,0,0,1,.16.12.21.21,0,0,1-.12.25l-.16.05-1.37.47h-.06a.22.22,0,0,1-.2-.13.21.21,0,0,1,.13-.26l1.52-.51Zm-2.61-.58L29,8.94a.19.19,0,0,1,.27,0,.18.18,0,0,1,.05.27L28,11a.21.21,0,0,1-.16.08.16.16,0,0,1-.12,0A.19.19,0,0,1,27.66,10.81ZM26.2,8.9a.21.21,0,0,1,.21-.21.2.2,0,0,1,.19.21v1.58a.2.2,0,0,1-.19.2.21.21,0,0,1-.21-.2Zm.33,2.49a1.71,1.71,0,1,1-1.74,1.71A1.73,1.73,0,0,1,26.53,11.39Zm.27,5.92a.19.19,0,0,1-.18.2h0a.2.2,0,0,1-.2-.19l-.08-2a.2.2,0,1,1,.39,0ZM25.24,15l-.88,1.33a.18.18,0,0,1-.17.09.19.19,0,0,1-.1,0A.2.2,0,0,1,24,16.1l.88-1.33a.22.22,0,0,1,.28-.06A.19.19,0,0,1,25.24,15Zm-2-5.73a.21.21,0,0,1,.29,0L25,10.93a.18.18,0,0,1,0,.27.21.21,0,0,1-.13.05.23.23,0,0,1-.15-.07L23.23,9.53A.2.2,0,0,1,23.25,9.25ZM14.06,14s2.18.56,4.61,1.28c-.38-.31-2-2,.63-4.69,0,0,2.45,3.11,0,4.7v.18l1.92.6c-.42-.77-.62-2.13,1.18-4a.22.22,0,0,1-.13-.24.19.19,0,0,1,.24-.14l1.56.39a.2.2,0,0,1,.16.23.23.23,0,0,1-.2.15H24l-1.57-.38h0a6.16,6.16,0,0,1,.91,1.75l.74-.28a.19.19,0,0,1,.26.11.19.19,0,0,1-.12.25l-.78.3a2.24,2.24,0,0,1-.75,2.36A10.24,10.24,0,0,1,25,17.65L14.72,23.24A9.74,9.74,0,0,1,14.06,14Zm1.33,10.29s7.36-7.14,17.17-5.42c0,0,.11.54,0,.56s-15.09,1.89-15.83,6.91Zm10.11,5s.4-3.32,6.44-5.58C31.94,23.78,30,29.41,25.5,29.36Zm6.69-6s-7.68,2.52-7.68,6l-3.57-.44s3.07-6,11.67-7.11Zm.42-2.16s-11.47,2.7-12.22,7.76l-3-2s3.22-6,15.24-7.08Z"/><path class="cls-3" d="M32.56,19.46c-.11,0-15.09,1.89-15.83,6.91l-1.34-2.05s7.36-7.14,17.17-5.42C32.56,18.9,32.67,19.44,32.56,19.46Z"/><path class="cls-3" d="M32.61,19.81v1.35s-11.47,2.7-12.22,7.76l-3-2S20.59,20.91,32.61,19.81Z"/><path class="cls-3" d="M32.61,21.81l-.42,1.51s-7.68,2.52-7.68,6l-3.57-.44S24,22.94,32.61,21.81Z"/><path class="cls-3" d="M31.94,23.78s-2,5.63-6.44,5.58C25.5,29.36,25.9,26,31.94,23.78Z"/><path class="cls-3" d="M25,17.65,14.72,23.24A9.74,9.74,0,0,1,14.06,14s2.18.56,4.61,1.28l.64.19,1.92.6,1.44.49A10.24,10.24,0,0,1,25,17.65Z"/></svg>