<svg id="Layer_1" data-name="Layer 1" xmlns="http://www.w3.org/2000/svg" viewBox="0 0 48 48"><defs><style>.cls-1{fill:#272362;}.cls-2{fill:#fff;}.cls-3{fill:#ee3424;}.cls-4{fill:#231f20;}.cls-5{fill:#3e4092;}.cls-6{fill:#828292;}</style></defs><path class="cls-1" d="M38.67,9.31a17.31,17.31,0,0,0-5.15-5,17.77,17.77,0,0,0-19,0A17.32,17.32,0,0,0,9.32,9.33a16.9,16.9,0,0,0,2.39,21.55,56.82,56.82,0,0,1,7.36,8.94l4.41,6.47a.75.75,0,0,0,1,0l4.42-6.49a57.2,57.2,0,0,1,7.36-8.93A16.9,16.9,0,0,0,38.67,9.31Zm-2.35,10A12.18,12.18,0,0,1,24.63,30.51a12.14,12.14,0,0,1-13-11.85A12.11,12.11,0,0,1,24,6.8,12.07,12.07,0,0,1,36.32,19.33Z"/><path class="cls-2" d="M24,6.8A12.11,12.11,0,0,0,11.66,18.66a12.14,12.14,0,0,0,13,11.85A12.18,12.18,0,0,0,36.32,19.33,12.07,12.07,0,0,0,24,6.8Zm.43,2.25,3.66,3.59V9.75l1.14,1.13v2.88l3.58,3.52-.8.8-1-1v6.41H29.82V15.91l-5.43-5.32L19,15.42v7.24c-.38.18-.76.38-1.13.58v-6.8L16,18.09l-.76-.83Zm2.12,8.56V22.9L26,22.77l-.56-.15c-1-.27-1.89-.55-2.51-.77h0l-.06,0a2,2,0,0,0-.56-.08,2.86,2.86,0,0,0-.58,0V17.61ZM25.2,24.39A13.76,13.76,0,0,1,23.87,24a7.16,7.16,0,0,0-1-.12h0l-.56,0h-.58a14,14,0,0,0-3.65.59,16.27,16.27,0,0,0-3.52,1.53,36.72,36.72,0,0,1,3.32-2.19c.37-.21.75-.42,1.13-.6a9.24,9.24,0,0,1,2.72-.95,2.89,2.89,0,0,1,.58,0,2,2,0,0,1,.5.08l.06,0c.25.09,1.25.45,2.59.79l.56.15.35.08.22.05a19.78,19.78,0,0,0,4.41.54,5.11,5.11,0,0,0,3.48-1.08C34.2,23.09,31.52,26.17,25.2,24.39Z"/><path class="cls-3" d="M25.5,18.18v4.59l-.57-.15c-1-.27-1.88-.55-2.5-.77h0l-.06,0a2.12,2.12,0,0,0-.57-.08V18.18Z"/><path class="cls-4" d="M26.07,17.61V22.9l-.57-.13-.57-.15V18.73H22.35v3.09a2.12,2.12,0,0,0-.57-.08,2.76,2.76,0,0,0-.57,0V17.61Z"/><polygon class="cls-1" points="32.33 17.28 31.53 18.08 30.47 17.03 29.33 15.91 23.91 10.59 18.49 15.42 17.35 16.44 15.51 18.09 14.75 17.26 23.95 9.05 28.75 13.76 32.33 17.28"/><path class="cls-5" d="M18.49,15.42v7.24c-.38.18-.76.38-1.14.58v-6.8Z"/><path class="cls-5" d="M30.47,17v6.41H29.33V15.91Z"/><polygon class="cls-6" points="28.75 10.88 28.75 13.76 27.61 12.64 27.61 9.75 28.75 10.88"/><path class="cls-6" d="M34,22.78c-.25.31-2.92,3.39-9.24,1.61-.43-.12-.87-.26-1.34-.44a6.84,6.84,0,0,0-1-.12h0l-.57,0h-.57a14,14,0,0,0-3.65.59A16.27,16.27,0,0,0,14,25.92a37.54,37.54,0,0,1,3.31-2.19c.38-.21.76-.42,1.14-.6a9.24,9.24,0,0,1,2.72-.95,2.83,2.83,0,0,1,.57,0,2.09,2.09,0,0,1,.51.08l.06,0c.24.09,1.25.45,2.58.79l.57.15.35.08.22.05a19.77,19.77,0,0,0,4.4.54A5.12,5.12,0,0,0,34,22.78Z"/></svg>