<svg id="Layer_1" data-name="Layer 1" xmlns="http://www.w3.org/2000/svg" xmlns:xlink="http://www.w3.org/1999/xlink" viewBox="0 0 48 48"><defs><style>.cls-1{fill:#d18b3c;}.cls-2{fill:#272362;}.cls-3{fill:#fff;}.cls-4{fill:#1f419a;}.cls-5{fill:#1a3d21;}.cls-6{fill:url(#radial-gradient);}</style><radialGradient id="radial-gradient" cx="17.89" cy="15.03" r="1.7" gradientTransform="translate(-0.18 -0.15) scale(1.03 1.01)" gradientUnits="userSpaceOnUse"><stop offset="0" stop-color="#fff200"/><stop offset="1" stop-color="#f15a29"/></radialGradient></defs><path class="cls-1" d="M18.37,11v1.58a.21.21,0,0,1-.2.2.2.2,0,0,1-.2-.2V11a.2.2,0,0,1,.2-.2A.21.21,0,0,1,18.37,11Z"/><path class="cls-1" d="M21.12,11.26l-1.37,1.88a.21.21,0,0,1-.16.08.15.15,0,0,1-.11,0,.19.19,0,0,1-.06-.27L20.79,11a.2.2,0,0,1,.28,0A.19.19,0,0,1,21.12,11.26Z"/><path class="cls-1" d="M22.19,13.61a.21.21,0,0,1-.12.26l-.15.05-1.38.46h-.06a.21.21,0,0,1-.19-.13.2.2,0,0,1,.12-.25l1.53-.52H22A.18.18,0,0,1,22.19,13.61Z"/><path class="cls-1" d="M22.77,16.51a.19.19,0,0,1-.19.12h-.07l-.45-.17-1.51-.57h0l-.1,0a.19.19,0,1,1,.14-.36l.28.1,1.2.46.33.12.27.1A.19.19,0,0,1,22.77,16.51Z"/><path class="cls-1" d="M20.79,18.26a.21.21,0,0,1-.1,0h0a.2.2,0,0,1-.16-.07l-1-1.24a.2.2,0,0,1,0-.29.19.19,0,0,1,.27,0l1,1.25a.08.08,0,0,1,0,0A.19.19,0,0,1,20.79,18.26Z"/><path class="cls-1" d="M18.56,19.41a.19.19,0,0,1-.18.2h0a.2.2,0,0,1-.21-.19l-.08-2a.19.19,0,0,1,.18-.21.2.2,0,0,1,.21.19Z"/><path class="cls-1" d="M17,17.09l-.88,1.32a.16.16,0,0,1-.16.1.23.23,0,0,1-.11,0,.21.21,0,0,1-.06-.28l.88-1.32a.21.21,0,0,1,.28-.07A.21.21,0,0,1,17,17.09Z"/><path class="cls-1" d="M16.08,15.78A.19.19,0,0,1,16,16l-1.9.73-.07,0a.24.24,0,0,1-.2-.12.21.21,0,0,1,.12-.26l1.9-.73A.2.2,0,0,1,16.08,15.78Z"/><path class="cls-1" d="M16,14.44a.22.22,0,0,1-.2.15h-.05l-1.57-.38A.19.19,0,0,1,14,14a.19.19,0,0,1,.24-.14l1.56.38A.19.19,0,0,1,16,14.44Z"/><path class="cls-1" d="M16.72,13.3a.27.27,0,0,1-.14,0,.23.23,0,0,1-.15-.07L15,11.63a.2.2,0,0,1,0-.28.21.21,0,0,1,.29,0L16.74,13A.19.19,0,0,1,16.72,13.3Z"/><path class="cls-2" d="M39.11,9.32A17.23,17.23,0,0,0,34,4.27a17.74,17.74,0,0,0-19,0A17.17,17.17,0,0,0,9.76,9.33a16.9,16.9,0,0,0,2.39,21.55,56.74,56.74,0,0,1,7.36,8.93l4.41,6.47a.73.73,0,0,0,1,0l4.42-6.48a57.2,57.2,0,0,1,7.36-8.93A16.89,16.89,0,0,0,39.11,9.32Zm-2.35,10A12.19,12.19,0,0,1,25.07,30.51a12.14,12.14,0,0,1-13-11.84A12.1,12.1,0,0,1,24.44,6.81,12.07,12.07,0,0,1,36.76,19.33Z"/><path class="cls-3" d="M24.44,6.81A12.1,12.1,0,0,0,12.1,18.67a12.14,12.14,0,0,0,13,11.84A12.19,12.19,0,0,0,36.76,19.33,12.07,12.07,0,0,0,24.44,6.81ZM22,13.49l0-.17a9.15,9.15,0,0,0,5.67,0c-.06.78.41,1.62,1.57,2.56-.52.09-1,.17-1.57.23v3.52a12.38,12.38,0,0,1,2,.3v-1.1s-1.94-1.37.45-3.86c0,0,2,2.53,0,3.82l0,1.29a9.36,9.36,0,0,1,1.81.71v-.64s-1.94-1.38.45-3.86c0,0,2,2.53,0,3.81l0,.95a6,6,0,0,1,1,.75s-3.65,1.42-6.77.26a22.48,22.48,0,0,0-6.88-.93c.36-.15.71-.29,1.06-.41v-.93a1.15,1.15,0,0,1-.28-1.49h0a.2.2,0,0,1-.16-.07l-1-1.24a.2.2,0,0,1,0-.29.19.19,0,0,1,.27,0l1,1.25a.08.08,0,0,1,0,0,3.75,3.75,0,0,1,.39-.48s1.16,1.47,0,2.21l0,.86c.28-.1.54-.18.8-.25V16.45l-1.51-.57h0l-.1,0a.19.19,0,1,1,.14-.36l.28.1a4.37,4.37,0,0,0,1.06-1.66l-1.38.46h-.06a.21.21,0,0,1-.19-.13.2.2,0,0,1,.12-.25l1.53-.52Zm-2.61-.58L20.79,11a.2.2,0,0,1,.28,0,.19.19,0,0,1,.05.27l-1.37,1.88a.21.21,0,0,1-.16.08.15.15,0,0,1-.11,0A.19.19,0,0,1,19.42,12.91ZM18,11a.2.2,0,0,1,.2-.2.21.21,0,0,1,.2.2v1.58a.21.21,0,0,1-.2.2.2.2,0,0,1-.2-.2Zm.2,2.26A1.71,1.71,0,1,1,16.43,15,1.73,1.73,0,0,1,18.17,13.26Zm.39,6.15a.19.19,0,0,1-.18.2h0a.2.2,0,0,1-.21-.19l-.08-2a.19.19,0,0,1,.18-.21.2.2,0,0,1,.21.19ZM17,17.09l-.88,1.32a.16.16,0,0,1-.16.1.23.23,0,0,1-.11,0,.21.21,0,0,1-.06-.28l.88-1.32a.21.21,0,0,1,.28-.07A.21.21,0,0,1,17,17.09Zm-2-5.74a.21.21,0,0,1,.29,0L16.74,13a.19.19,0,0,1,0,.27.27.27,0,0,1-.14,0,.23.23,0,0,1-.15-.07L15,11.63A.2.2,0,0,1,15,11.35Zm-.73,2.48,1.56.38a.19.19,0,0,1,.16.23.22.22,0,0,1-.2.15h-.05l-1.57-.38A.19.19,0,0,1,14,14,.19.19,0,0,1,14.28,13.83Zm-.28,3a.24.24,0,0,1-.2-.12.21.21,0,0,1,.12-.26l1.9-.73a.2.2,0,0,1,.26.11A.19.19,0,0,1,16,16l-1.9.73Zm11.62,8c-8.3-1-6.93-1.75-11-.51,0,0,2.83-3.91,10.39-2.06,7.3,1.79,10.49-.33,10.7-.48C35.59,21.94,33.68,25.78,25.62,24.78Z"/><path class="cls-4" d="M35.68,21.73c-.09.21-2,4.05-10.06,3.05-8.3-1-6.93-1.75-11-.51,0,0,2.83-3.91,10.39-2.06C32.28,24,35.47,21.88,35.68,21.73Z"/><path class="cls-5" d="M33.56,21.8s-3.65,1.42-6.77.26a22.48,22.48,0,0,0-6.88-.93c.36-.15.71-.29,1.06-.41l.29-.1c.28-.1.54-.18.8-.25a15.55,15.55,0,0,1,2.07-.51,12.79,12.79,0,0,1,1.63-.21,13.08,13.08,0,0,1,2,0,12.38,12.38,0,0,1,2,.3c.18,0,.34.1.5.15a9.36,9.36,0,0,1,1.81.71,5,5,0,0,1,.47.26A6,6,0,0,1,33.56,21.8Z"/><path class="cls-5" d="M29.3,15.88c-.52.09-1,.17-1.57.23a23.31,23.31,0,0,1-5.34.05l-.33,0c-.5-.06-1-.14-1.51-.24l.31-.3a4.37,4.37,0,0,0,1.06-1.66,2.26,2.26,0,0,0,.11-.43l0-.17a9.15,9.15,0,0,0,5.67,0C27.67,14.1,28.14,14.94,29.3,15.88Z"/><path class="cls-5" d="M22.06,15.88v4.66h5.67V15.88ZM23.63,17v.82h-.82V17Zm2.13,3.35H24.13V17.93h1.63Zm.51-2.63V17h.81v.79Z"/><path class="cls-5" d="M21.23,19.76l0,.86v.15H21v-1a1.15,1.15,0,0,1-.28-1.49,1.82,1.82,0,0,1,.15-.27,3.75,3.75,0,0,1,.39-.48S22.39,19,21.23,19.76Z"/><path class="cls-5" d="M30.19,18.79l0,1.29v.43h-.51V18.83s-1.94-1.37.45-3.86C30.19,15,32.18,17.5,30.19,18.79Z"/><path class="cls-5" d="M32.5,20.1l0,.95,0,.78h-.49V20.15s-1.94-1.38.45-3.86C32.5,16.29,34.48,18.82,32.5,20.1Z"/><path class="cls-6" d="M19.91,15a1.74,1.74,0,1,1-1.74-1.71A1.72,1.72,0,0,1,19.91,15Z"/></svg>