<svg id="Layer_1" data-name="Layer 1" xmlns="http://www.w3.org/2000/svg" viewBox="0 0 48 48"><defs><style>.cls-1{fill:#272362;}.cls-2{fill:#fff;}.cls-3{fill:#f7a339;}.cls-4{fill:#514c43;}.cls-5{fill:#6b6c89;}.cls-6{fill:#828292;}.cls-7{fill:#3e4092;}.cls-8{fill:#dc5b59;}.cls-9{fill:#b0b0c3;}.cls-10{fill:#bfbfd1;}.cls-11{fill:#8888ba;}</style></defs><path class="cls-1" d="M38.67,9.32a17.34,17.34,0,0,0-5.15-5.05,17.74,17.74,0,0,0-19,0A17.29,17.29,0,0,0,9.32,9.33a16.9,16.9,0,0,0,2.39,21.55,56.74,56.74,0,0,1,7.36,8.93l4.41,6.47a.73.73,0,0,0,1,0l4.42-6.48a57.2,57.2,0,0,1,7.36-8.93A16.89,16.89,0,0,0,38.67,9.32Zm-2.35,10A12.19,12.19,0,0,1,24.63,30.51a12.14,12.14,0,0,1-13-11.84A12.1,12.1,0,0,1,24,6.81,12.07,12.07,0,0,1,36.32,19.33Z"/><path class="cls-2" d="M24,6.81A12.1,12.1,0,0,0,11.66,18.67a12.14,12.14,0,0,0,13,11.84A12.19,12.19,0,0,0,36.32,19.33,12.07,12.07,0,0,0,24,6.81Zm4.18,1.65,2.44,1v13l-2.05-1.87-.08-.06-.36-.33ZM26.28,9.8a12.72,12.72,0,0,1,1.64-1.34l0,11.77-1.69-1.95S26.26,10,26.28,9.8Zm-2.86.06,2.12.58v8.35l-.77-.62-.29-.23-.16-.14-.43-.35h0l-.31-.28-.13-.09Zm-1.89.58,1.8-.58v7.22l-1.8,1.71Zm-1.38,1.3c0,.14.08,7.18.08,7.18l-1.64,1.65,0-10A11.9,11.9,0,0,1,20.15,11.74Zm-4.36-.06,2.43-.85.06,10-.36.28-.08.06-2.05,1.58Zm7.64,5.95.21.17.22.17.23.2,8,6.5H30L23.43,19.4l-6.88,5.18-2.07.09ZM23.58,22V21h.92V22Zm.92.2v.92h-.92v-.92ZM22.43,22V21h.91V22Zm.91.2v.92h-.91v-.92Zm8.9,3.17H14.48v-.43H32.24Z"/><rect class="cls-1" x="23.58" y="22.15" width="0.92" height="0.92"/><rect class="cls-1" x="22.43" y="22.15" width="0.91" height="0.92"/><polygon class="cls-1" points="32.11 24.67 29.98 24.67 23.43 19.4 16.55 24.58 14.48 24.67 23.43 17.63 23.64 17.8 23.86 17.97 24.09 18.17 32.11 24.67"/><rect class="cls-1" x="22.43" y="21.03" width="0.91" height="0.92"/><rect class="cls-1" x="23.58" y="21.03" width="0.92" height="0.92"/><polygon class="cls-3" points="18.28 20.79 17.92 21.07 17.84 21.13 15.79 22.71 15.79 11.68 18.22 10.83 18.28 20.79"/><path class="cls-4" d="M20.23,18.92l-1.64,1.65,0-10a11.9,11.9,0,0,1,1.6,1.14C20.16,11.88,20.23,18.92,20.23,18.92Z"/><rect class="cls-5" x="16.23" y="12.24" width="0.59" height="0.59"/><rect class="cls-6" x="17.33" y="12.15" width="0.59" height="0.59"/><rect class="cls-6" x="16.23" y="13.29" width="0.59" height="0.59"/><rect class="cls-5" x="17.33" y="13.2" width="0.59" height="0.59"/><rect class="cls-5" x="16.23" y="14.33" width="0.59" height="0.59"/><rect class="cls-6" x="17.33" y="14.24" width="0.59" height="0.59"/><rect class="cls-6" x="16.23" y="15.38" width="0.59" height="0.59"/><rect class="cls-5" x="17.33" y="15.29" width="0.59" height="0.59"/><rect class="cls-5" x="16.23" y="16.43" width="0.59" height="0.59"/><rect class="cls-6" x="17.33" y="16.34" width="0.59" height="0.59"/><rect class="cls-6" x="16.23" y="17.48" width="0.59" height="0.59"/><rect class="cls-5" x="17.33" y="17.39" width="0.59" height="0.59"/><rect class="cls-5" x="16.23" y="18.53" width="0.59" height="0.59"/><rect class="cls-6" x="17.33" y="18.44" width="0.59" height="0.59"/><rect class="cls-6" x="16.23" y="19.58" width="0.59" height="0.59"/><rect class="cls-5" x="17.33" y="19.49" width="0.59" height="0.59"/><rect class="cls-5" x="16.23" y="20.62" width="0.59" height="0.59"/><polygon class="cls-6" points="17.92 20.53 17.92 21.07 17.84 21.13 17.33 21.13 17.33 20.53 17.92 20.53"/><polygon class="cls-7" points="30.62 9.47 30.62 22.49 28.57 20.62 28.49 20.56 28.13 20.23 28.18 8.46 30.62 9.47"/><path class="cls-4" d="M27.92,8.46l0,11.77-1.69-1.95s.07-8.31.09-8.48A12.72,12.72,0,0,1,27.92,8.46Z"/><rect class="cls-5" x="29.59" y="10.12" width="0.59" height="0.69" transform="translate(59.76 20.93) rotate(180)"/><rect class="cls-6" x="28.49" y="10.02" width="0.59" height="0.69" transform="translate(57.56 20.72) rotate(180)"/><rect class="cls-6" x="29.59" y="11.36" width="0.59" height="0.69" transform="translate(59.76 23.41) rotate(180)"/><rect class="cls-5" x="28.49" y="11.25" width="0.59" height="0.69" transform="translate(57.56 23.2) rotate(180)"/><rect class="cls-5" x="29.59" y="12.6" width="0.59" height="0.69" transform="translate(59.76 25.89) rotate(180)"/><rect class="cls-6" x="28.49" y="12.49" width="0.59" height="0.69" transform="translate(57.56 25.68) rotate(180)"/><rect class="cls-6" x="29.59" y="13.84" width="0.59" height="0.69" transform="translate(59.76 28.36) rotate(180)"/><rect class="cls-5" x="28.49" y="13.73" width="0.59" height="0.69" transform="translate(57.56 28.15) rotate(180)"/><rect class="cls-5" x="29.59" y="15.07" width="0.59" height="0.69" transform="translate(59.76 30.84) rotate(180)"/><rect class="cls-6" x="28.49" y="14.97" width="0.59" height="0.69" transform="translate(57.56 30.63) rotate(180)"/><rect class="cls-6" x="29.59" y="16.31" width="0.59" height="0.69" transform="translate(59.76 33.32) rotate(180)"/><rect class="cls-5" x="28.49" y="16.21" width="0.59" height="0.69" transform="translate(57.56 33.11) rotate(180)"/><rect class="cls-5" x="29.59" y="17.55" width="0.59" height="0.69" transform="translate(59.76 35.79) rotate(180)"/><rect class="cls-6" x="28.49" y="17.45" width="0.59" height="0.69" transform="translate(57.56 35.58) rotate(180)"/><rect class="cls-6" x="29.59" y="18.79" width="0.59" height="0.69" transform="translate(59.76 38.27) rotate(180)"/><rect class="cls-5" x="28.49" y="18.68" width="0.59" height="0.69" transform="translate(57.56 38.06) rotate(180)"/><rect class="cls-5" x="29.59" y="20.03" width="0.59" height="0.69" transform="translate(59.76 40.75) rotate(180)"/><polygon class="cls-6" points="29.07 19.92 29.07 20.62 28.57 20.62 28.49 20.56 28.49 19.92 29.07 19.92"/><polygon class="cls-4" points="23.33 9.86 23.33 17.08 21.53 18.79 21.53 10.44 23.33 9.86"/><polygon class="cls-8" points="25.54 10.44 25.54 18.79 24.77 18.17 24.48 17.94 24.32 17.8 23.89 17.45 23.86 17.43 23.55 17.17 23.42 17.08 23.42 9.86 25.54 10.44"/><rect class="cls-9" x="23.55" y="10.64" width="0.31" height="0.37"/><rect class="cls-10" x="23.86" y="10.64" width="0.31" height="0.37"/><rect class="cls-9" x="24.17" y="10.64" width="0.31" height="0.37"/><rect class="cls-10" x="24.48" y="10.64" width="0.31" height="0.37"/><rect class="cls-9" x="24.79" y="10.64" width="0.31" height="0.37"/><rect class="cls-10" x="25.1" y="10.64" width="0.31" height="0.37"/><rect class="cls-9" x="23.55" y="11.35" width="0.31" height="0.37"/><rect class="cls-10" x="23.86" y="11.35" width="0.31" height="0.37"/><rect class="cls-9" x="24.17" y="11.35" width="0.31" height="0.37"/><rect class="cls-10" x="24.48" y="11.35" width="0.31" height="0.37"/><rect class="cls-9" x="24.79" y="11.35" width="0.31" height="0.37"/><rect class="cls-10" x="25.1" y="11.35" width="0.31" height="0.37"/><rect class="cls-9" x="23.55" y="12.07" width="0.31" height="0.37"/><rect class="cls-10" x="23.86" y="12.07" width="0.31" height="0.37"/><rect class="cls-9" x="24.17" y="12.07" width="0.31" height="0.37"/><rect class="cls-10" x="24.48" y="12.07" width="0.31" height="0.37"/><rect class="cls-9" x="24.79" y="12.07" width="0.31" height="0.37"/><rect class="cls-10" x="25.1" y="12.07" width="0.31" height="0.37"/><rect class="cls-9" x="23.55" y="12.79" width="0.31" height="0.37"/><rect class="cls-10" x="23.86" y="12.79" width="0.31" height="0.37"/><rect class="cls-9" x="24.17" y="12.79" width="0.31" height="0.37"/><rect class="cls-10" x="24.48" y="12.79" width="0.31" height="0.37"/><rect class="cls-9" x="24.79" y="12.79" width="0.31" height="0.37"/><rect class="cls-10" x="25.1" y="12.79" width="0.31" height="0.37"/><rect class="cls-9" x="23.55" y="13.5" width="0.31" height="0.37"/><rect class="cls-10" x="23.86" y="13.5" width="0.31" height="0.37"/><rect class="cls-9" x="24.17" y="13.5" width="0.31" height="0.37"/><rect class="cls-10" x="24.48" y="13.5" width="0.31" height="0.37"/><rect class="cls-9" x="24.79" y="13.5" width="0.31" height="0.37"/><rect class="cls-10" x="25.1" y="13.5" width="0.31" height="0.37"/><rect class="cls-9" x="23.55" y="14.22" width="0.31" height="0.37"/><rect class="cls-10" x="23.86" y="14.22" width="0.31" height="0.37"/><rect class="cls-9" x="24.17" y="14.22" width="0.31" height="0.37"/><rect class="cls-10" x="24.48" y="14.22" width="0.31" height="0.37"/><rect class="cls-9" x="24.79" y="14.22" width="0.31" height="0.37"/><rect class="cls-10" x="25.1" y="14.22" width="0.31" height="0.37"/><rect class="cls-9" x="23.55" y="14.94" width="0.31" height="0.37"/><rect class="cls-10" x="23.86" y="14.94" width="0.31" height="0.37"/><rect class="cls-9" x="24.17" y="14.94" width="0.31" height="0.37"/><rect class="cls-10" x="24.48" y="14.94" width="0.31" height="0.37"/><rect class="cls-9" x="24.79" y="14.94" width="0.31" height="0.37"/><rect class="cls-10" x="25.1" y="14.94" width="0.31" height="0.37"/><rect class="cls-9" x="23.55" y="15.65" width="0.31" height="0.37"/><rect class="cls-10" x="23.86" y="15.65" width="0.31" height="0.37"/><rect class="cls-9" x="24.17" y="15.65" width="0.31" height="0.37"/><rect class="cls-10" x="24.48" y="15.65" width="0.31" height="0.37"/><rect class="cls-9" x="24.79" y="15.65" width="0.31" height="0.37"/><rect class="cls-10" x="25.1" y="15.65" width="0.31" height="0.37"/><rect class="cls-9" x="23.55" y="16.37" width="0.31" height="0.37"/><rect class="cls-10" x="23.86" y="16.37" width="0.31" height="0.37"/><rect class="cls-9" x="24.17" y="16.37" width="0.31" height="0.37"/><rect class="cls-10" x="24.48" y="16.37" width="0.31" height="0.37"/><rect class="cls-9" x="24.79" y="16.37" width="0.31" height="0.37"/><rect class="cls-10" x="25.1" y="16.37" width="0.31" height="0.37"/><polygon class="cls-9" points="23.86 17.08 23.86 17.45 23.55 17.17 23.55 17.08 23.86 17.08"/><rect class="cls-10" x="23.86" y="17.09" width="0.31" height="0.36"/><rect class="cls-9" x="24.17" y="17.09" width="0.31" height="0.37"/><rect class="cls-10" x="24.48" y="17.09" width="0.31" height="0.37"/><rect class="cls-9" x="24.79" y="17.09" width="0.31" height="0.37"/><rect class="cls-10" x="25.1" y="17.09" width="0.31" height="0.37"/><polygon class="cls-9" points="24.48 17.8 24.48 17.94 24.32 17.8 24.48 17.8"/><polygon class="cls-10" points="24.79 17.8 24.79 18.17 24.77 18.17 24.48 17.94 24.48 17.8 24.79 17.8"/><rect class="cls-9" x="24.79" y="17.8" width="0.31" height="0.37"/><rect class="cls-10" x="25.1" y="17.8" width="0.31" height="0.37"/><rect class="cls-11" x="14.48" y="24.89" width="17.76" height="0.43"/></svg>