<svg id="Layer_1" data-name="Layer 1" xmlns="http://www.w3.org/2000/svg" viewBox="0 0 48 48"><defs><style>.cls-1{fill:#272362;}.cls-2{fill:#fff;}.cls-3{fill:#889eb1;}.cls-4{fill:#6166ae;}.cls-5{fill:#7ea9cb;}.cls-6{fill:#b0b0c3;}.cls-7{fill:#bfbfd1;}.cls-8{fill:#aa5a26;}.cls-9{fill:#6b87a6;}.cls-10{fill:#1a3d21;}.cls-11{fill:#80b441;}.cls-12{fill:#231f20;}</style></defs><path class="cls-1" d="M39.39,8.51a17.34,17.34,0,0,0-5.15-5,17.74,17.74,0,0,0-19,0A17.29,17.29,0,0,0,10,8.52a16.9,16.9,0,0,0,2.39,21.55A56.74,56.74,0,0,1,19.79,39l4.41,6.47a.73.73,0,0,0,1,0L29.66,39A57.2,57.2,0,0,1,37,30.06,16.89,16.89,0,0,0,39.39,8.51ZM37,18.52A12.19,12.19,0,0,1,25.35,29.7a12.14,12.14,0,0,1-13-11.84A12.1,12.1,0,0,1,24.72,6,12.07,12.07,0,0,1,37,18.52Z"/><path class="cls-2" d="M24.72,6A12.1,12.1,0,0,0,12.38,17.86a12.14,12.14,0,0,0,13,11.84A12.19,12.19,0,0,0,37,18.52,12.07,12.07,0,0,0,24.72,6ZM34,25.39H16.79v-.12h1.68V23.74a1.84,1.84,0,0,1,0-2.56V10.63h2.68v-1h3.18V9.1h2.05v.5h3.18v1h2.69V22.12c.24.36.87,1.46,0,2.12v1h1v-.66s-.84-.59.19-1.67c0,0,.86,1.1,0,1.65v.68H34Z"/><rect class="cls-3" x="18.47" y="10.63" width="13.78" height="14.7"/><rect class="cls-4" x="19.6" y="11.45" width="11.51" height="13.07"/><rect class="cls-3" x="24.33" y="9.1" width="2.05" height="0.7"/><rect class="cls-5" x="21.15" y="9.6" width="8.41" height="1.03"/><rect class="cls-6" x="19.8" y="11.97" width="1.85" height="1.7"/><rect class="cls-7" x="21.65" y="11.97" width="1.85" height="1.7"/><rect class="cls-6" x="23.51" y="11.97" width="1.85" height="1.7"/><rect class="cls-7" x="25.36" y="11.97" width="1.85" height="1.7"/><rect class="cls-6" x="27.21" y="11.97" width="1.85" height="1.7"/><rect class="cls-7" x="29.06" y="11.97" width="1.85" height="1.7"/><rect class="cls-6" x="19.8" y="14.01" width="1.85" height="1.7"/><rect class="cls-7" x="21.65" y="14.01" width="1.85" height="1.7"/><rect class="cls-6" x="23.51" y="14.01" width="1.85" height="1.7"/><rect class="cls-7" x="25.36" y="14.01" width="1.85" height="1.7"/><rect class="cls-6" x="27.21" y="14.01" width="1.85" height="1.7"/><rect class="cls-7" x="29.06" y="14.01" width="1.85" height="1.7"/><rect class="cls-6" x="19.8" y="16.05" width="1.85" height="1.7"/><rect class="cls-7" x="21.65" y="16.05" width="1.85" height="1.7"/><rect class="cls-6" x="23.51" y="16.05" width="1.85" height="1.7"/><rect class="cls-7" x="25.36" y="16.05" width="1.85" height="1.7"/><rect class="cls-6" x="27.21" y="16.05" width="1.85" height="1.7"/><rect class="cls-7" x="29.06" y="16.05" width="1.85" height="1.7"/><rect class="cls-6" x="19.8" y="18.09" width="1.85" height="1.7"/><rect class="cls-7" x="21.65" y="18.09" width="1.85" height="1.7"/><rect class="cls-6" x="23.51" y="18.09" width="1.85" height="1.7"/><rect class="cls-7" x="25.36" y="18.09" width="1.85" height="1.7"/><rect class="cls-6" x="27.21" y="18.09" width="1.85" height="1.7"/><rect class="cls-7" x="29.06" y="18.09" width="1.85" height="1.7"/><rect class="cls-8" x="24.43" y="21.27" width="1.85" height="3.25"/><rect class="cls-9" x="23.44" y="20.53" width="3.83" height="0.73"/><path class="cls-10" d="M19.6,23.18a1.59,1.59,0,0,1-.6.65v1.5h-.42V23.87a.83.83,0,0,1-.14-.13,1.84,1.84,0,0,1,0-2.56,4.1,4.1,0,0,1,.53-.65,4.44,4.44,0,0,1,.6,1.12A1.9,1.9,0,0,1,19.6,23.18Z"/><path class="cls-10" d="M33.4,24.59v.75h-.21v-.73s-.84-.59.19-1.67C33.4,22.94,34.26,24,33.4,24.59Z"/><path class="cls-10" d="M32.25,24.24l-.08.06v1h-.3v-1s-1.17-.84.28-2.33l.08.12C32.49,22.48,33.12,23.58,32.25,24.24Z"/><path class="cls-11" d="M18.47,25.33S18.75,24,19.6,24c0,0,.35-.79,1.13,0s0,.09,0,.09.92-.2.83.4c0,0,1.05.58.52.82Z"/><path class="cls-10" d="M19,25.33s.21-.95.82-.94c0,0,.24-.56.8,0s0,.07,0,.07.66-.14.59.29c0,0,.75.41.38.58Z"/><rect class="cls-12" x="16.79" y="25.27" width="17.19" height="0.12"/></svg>