<svg id="Layer_1" data-name="Layer 1" xmlns="http://www.w3.org/2000/svg" viewBox="0 0 48 48"><defs><style>.cls-1{fill:#272362;}.cls-2{fill:#fff;}.cls-3{fill:#7e7d8f;}.cls-4{fill:#323266;}.cls-5{fill:#828292;}.cls-6{fill:#6b6c89;}.cls-7{fill:#3e4092;}.cls-8{fill:#b0b0c3;}.cls-9{fill:#bfbfd1;}</style></defs><path class="cls-1" d="M39.11,9.32A17.31,17.31,0,0,0,34,4.27a17.74,17.74,0,0,0-19,0A17.33,17.33,0,0,0,9.76,9.33a16.92,16.92,0,0,0,2.39,21.54,57.28,57.28,0,0,1,7.36,8.94l4.41,6.47a.74.74,0,0,0,1,0l4.42-6.49a57.06,57.06,0,0,1,7.35-8.92A17,17,0,0,0,42,18.67,16.74,16.74,0,0,0,39.11,9.32Zm-2.34,10A12.19,12.19,0,0,1,25.08,30.51c-7.11.33-13-5.1-13-11.84A12.11,12.11,0,0,1,24.45,6.81,12.08,12.08,0,0,1,36.77,19.33Z"/><path class="cls-2" d="M24.45,6.81A12.11,12.11,0,0,0,12.1,18.67c0,6.74,5.87,12.17,13,11.84A12.19,12.19,0,0,0,36.77,19.33,12.08,12.08,0,0,0,24.45,6.81Zm6.94,8.42V27.39H17.51V11.1h1.64v-.7h3.48v.7h1.86v4.05l7-4.51Z"/><path class="cls-3" d="M19.15,10.4v1.41h3.48V10.4Zm3,1.08H19.63v-.75h2.52Z"/><rect class="cls-4" x="17.51" y="11.1" width="6.98" height="16.29"/><rect class="cls-4" x="24.41" y="15.23" width="6.98" height="12.17"/><polygon class="cls-4" points="31.44 10.64 31.39 15.23 24.37 15.23 24.49 15.15 31.44 10.64"/><rect class="cls-5" x="18.39" y="12.27" width="2.18" height="2.14"/><rect class="cls-6" x="21.48" y="12.27" width="2.18" height="2.14"/><rect class="cls-6" x="18.37" y="15.21" width="2.18" height="2.14"/><rect class="cls-5" x="21.46" y="15.21" width="2.18" height="2.14"/><rect class="cls-5" x="18.35" y="18.14" width="2.18" height="2.14"/><rect class="cls-6" x="21.44" y="18.14" width="2.18" height="2.14"/><rect class="cls-6" x="18.33" y="21.07" width="2.18" height="2.14"/><rect class="cls-5" x="21.42" y="21.07" width="2.18" height="2.14"/><rect class="cls-5" x="18.31" y="24.01" width="2.18" height="2.14"/><rect class="cls-6" x="21.4" y="24.01" width="2.18" height="2.14"/><polygon class="cls-7" points="30.79 11.88 25.58 15.03 30.75 15.03 30.79 11.88"/><rect class="cls-8" x="24.92" y="15.59" width="1" height="1.18"/><rect class="cls-9" x="25.92" y="15.59" width="1" height="1.18"/><rect class="cls-8" x="26.93" y="15.59" width="1" height="1.18"/><rect class="cls-9" x="27.93" y="15.59" width="1" height="1.18"/><rect class="cls-8" x="28.93" y="15.59" width="1" height="1.18"/><rect class="cls-9" x="29.93" y="15.59" width="1" height="1.18"/><rect class="cls-8" x="24.92" y="17.13" width="1" height="1.18"/><rect class="cls-9" x="25.92" y="17.13" width="1" height="1.18"/><rect class="cls-8" x="26.93" y="17.13" width="1" height="1.18"/><rect class="cls-9" x="27.93" y="17.13" width="1" height="1.18"/><rect class="cls-8" x="28.93" y="17.13" width="1" height="1.18"/><rect class="cls-9" x="29.93" y="17.13" width="1" height="1.18"/><rect class="cls-8" x="24.92" y="18.67" width="1" height="1.18"/><rect class="cls-9" x="25.92" y="18.67" width="1" height="1.18"/><rect class="cls-8" x="26.93" y="18.67" width="1" height="1.18"/><rect class="cls-9" x="27.93" y="18.67" width="1" height="1.18"/><rect class="cls-8" x="28.93" y="18.67" width="1" height="1.18"/><rect class="cls-9" x="29.93" y="18.67" width="1" height="1.18"/><rect class="cls-8" x="24.92" y="20.2" width="1" height="1.18"/><rect class="cls-9" x="25.92" y="20.2" width="1" height="1.18"/><rect class="cls-8" x="26.93" y="20.2" width="1" height="1.18"/><rect class="cls-9" x="27.93" y="20.2" width="1" height="1.18"/><rect class="cls-8" x="28.93" y="20.2" width="1" height="1.18"/><rect class="cls-9" x="29.93" y="20.2" width="1" height="1.18"/><rect class="cls-8" x="24.92" y="21.74" width="1" height="1.18"/><rect class="cls-9" x="25.92" y="21.74" width="1" height="1.18"/><rect class="cls-8" x="26.93" y="21.74" width="1" height="1.18"/><rect class="cls-9" x="27.93" y="21.74" width="1" height="1.18"/><rect class="cls-8" x="28.93" y="21.74" width="1" height="1.18"/><rect class="cls-9" x="29.93" y="21.74" width="1" height="1.18"/><rect class="cls-8" x="24.92" y="23.28" width="1" height="1.18"/><rect class="cls-9" x="25.92" y="23.28" width="1" height="1.18"/><rect class="cls-8" x="26.93" y="23.28" width="1" height="1.18"/><rect class="cls-9" x="27.93" y="23.28" width="1" height="1.18"/><rect class="cls-8" x="28.93" y="23.28" width="1" height="1.18"/><rect class="cls-9" x="29.93" y="23.28" width="1" height="1.18"/><rect class="cls-8" x="24.92" y="24.82" width="1" height="1.18"/><rect class="cls-9" x="25.92" y="24.82" width="1" height="1.18"/><rect class="cls-8" x="26.93" y="24.82" width="1" height="1.18"/><rect class="cls-9" x="27.93" y="24.82" width="1" height="1.18"/><rect class="cls-8" x="28.93" y="24.82" width="1" height="1.18"/><rect class="cls-9" x="29.93" y="24.82" width="1" height="1.18"/></svg>