<svg id="Layer_1" data-name="Layer 1" xmlns="http://www.w3.org/2000/svg" xmlns:xlink="http://www.w3.org/1999/xlink" viewBox="0 0 48 48"><defs><style>.cls-1{fill:#272362;}.cls-2{fill:#fff;}.cls-3{fill:#28b34b;}.cls-4{fill:#1a3d21;}.cls-5{fill:#808285;}.cls-6{fill:#cbcbca;}.cls-7{fill:#7b7677;}.cls-8{fill:url(#linear-gradient);}.cls-9{fill:url(#linear-gradient-2);}.cls-10{fill:url(#linear-gradient-3);}.cls-11{fill:url(#linear-gradient-4);}.cls-12{fill:url(#linear-gradient-5);}.cls-13{fill:url(#linear-gradient-6);}.cls-14{fill:url(#linear-gradient-7);}.cls-15{fill:url(#linear-gradient-8);}.cls-16{fill:url(#linear-gradient-9);}.cls-17{fill:url(#linear-gradient-10);}.cls-18{fill:url(#linear-gradient-11);}.cls-19{fill:url(#linear-gradient-12);}.cls-20{fill:url(#linear-gradient-13);}.cls-21{fill:url(#linear-gradient-14);}.cls-22{fill:url(#linear-gradient-15);}.cls-23{fill:#e6e7e8;}.cls-24{fill:url(#linear-gradient-16);}.cls-25{fill:url(#linear-gradient-17);}.cls-26{fill:url(#linear-gradient-18);}.cls-27{fill:url(#linear-gradient-19);}.cls-28{fill:url(#linear-gradient-20);}.cls-29{fill:url(#linear-gradient-21);}.cls-30{fill:url(#linear-gradient-22);}.cls-31{fill:url(#linear-gradient-23);}.cls-32{fill:url(#linear-gradient-24);}.cls-33{fill:url(#linear-gradient-25);}.cls-34{fill:url(#linear-gradient-26);}.cls-35{fill:url(#linear-gradient-27);}.cls-36{fill:url(#linear-gradient-28);}.cls-37{fill:url(#linear-gradient-29);}.cls-38{fill:url(#linear-gradient-30);}.cls-39{fill:url(#linear-gradient-31);}.cls-40{fill:url(#linear-gradient-32);}.cls-41{fill:url(#linear-gradient-33);}.cls-42{fill:url(#linear-gradient-34);}.cls-43{fill:url(#linear-gradient-35);}.cls-44{fill:url(#linear-gradient-36);}.cls-45{fill:url(#linear-gradient-37);}.cls-46{fill:url(#linear-gradient-38);}.cls-47{fill:url(#linear-gradient-39);}.cls-48{fill:url(#linear-gradient-40);}.cls-49{fill:url(#linear-gradient-41);}.cls-50{fill:url(#linear-gradient-42);}.cls-51{fill:url(#linear-gradient-43);}.cls-52{fill:url(#linear-gradient-44);}.cls-53{fill:url(#linear-gradient-45);}</style><linearGradient id="linear-gradient" x1="16.31" y1="16.72" x2="16.97" y2="16.72" gradientUnits="userSpaceOnUse"><stop offset="0" stop-color="#fff"/><stop offset="0.61" stop-color="#939598"/><stop offset="0.96" stop-color="#a7a9ac"/></linearGradient><linearGradient id="linear-gradient-2" x1="17.57" y1="16.72" x2="18.23" y2="16.72" xlink:href="#linear-gradient"/><linearGradient id="linear-gradient-3" x1="18.82" y1="16.72" x2="19.48" y2="16.72" xlink:href="#linear-gradient"/><linearGradient id="linear-gradient-4" x1="16.34" y1="17.81" x2="16.99" y2="17.81" xlink:href="#linear-gradient"/><linearGradient id="linear-gradient-5" x1="17.59" y1="17.81" x2="18.25" y2="17.81" xlink:href="#linear-gradient"/><linearGradient id="linear-gradient-6" x1="18.85" y1="17.81" x2="19.51" y2="17.81" xlink:href="#linear-gradient"/><linearGradient id="linear-gradient-7" x1="16.36" y1="18.91" x2="17.02" y2="18.91" xlink:href="#linear-gradient"/><linearGradient id="linear-gradient-8" x1="17.62" y1="18.91" x2="18.28" y2="18.91" xlink:href="#linear-gradient"/><linearGradient id="linear-gradient-9" x1="18.87" y1="18.91" x2="19.53" y2="18.91" xlink:href="#linear-gradient"/><linearGradient id="linear-gradient-10" x1="16.38" y1="20.01" x2="17.04" y2="20.01" xlink:href="#linear-gradient"/><linearGradient id="linear-gradient-11" x1="17.64" y1="20.01" x2="18.3" y2="20.01" xlink:href="#linear-gradient"/><linearGradient id="linear-gradient-12" x1="18.9" y1="20.01" x2="19.56" y2="20.01" xlink:href="#linear-gradient"/><linearGradient id="linear-gradient-13" x1="16.41" y1="21.1" x2="17.07" y2="21.1" xlink:href="#linear-gradient"/><linearGradient id="linear-gradient-14" x1="17.67" y1="21.1" x2="18.32" y2="21.1" xlink:href="#linear-gradient"/><linearGradient id="linear-gradient-15" x1="18.92" y1="21.1" x2="19.58" y2="21.1" xlink:href="#linear-gradient"/><linearGradient id="linear-gradient-16" x1="21.81" y1="14.8" x2="22.67" y2="14.8" xlink:href="#linear-gradient"/><linearGradient id="linear-gradient-17" x1="23.44" y1="14.8" x2="24.3" y2="14.8" xlink:href="#linear-gradient"/><linearGradient id="linear-gradient-18" x1="25.07" y1="14.8" x2="25.93" y2="14.8" xlink:href="#linear-gradient"/><linearGradient id="linear-gradient-19" x1="21.84" y1="16.23" x2="22.7" y2="16.23" xlink:href="#linear-gradient"/><linearGradient id="linear-gradient-20" x1="23.47" y1="16.23" x2="24.33" y2="16.23" xlink:href="#linear-gradient"/><linearGradient id="linear-gradient-21" x1="25.1" y1="16.23" x2="25.96" y2="16.23" xlink:href="#linear-gradient"/><linearGradient id="linear-gradient-22" x1="21.87" y1="17.65" x2="22.73" y2="17.65" xlink:href="#linear-gradient"/><linearGradient id="linear-gradient-23" x1="23.5" y1="17.65" x2="24.36" y2="17.65" xlink:href="#linear-gradient"/><linearGradient id="linear-gradient-24" x1="25.14" y1="17.65" x2="25.99" y2="17.65" xlink:href="#linear-gradient"/><linearGradient id="linear-gradient-25" x1="21.9" y1="19.07" x2="22.76" y2="19.07" xlink:href="#linear-gradient"/><linearGradient id="linear-gradient-26" x1="23.54" y1="19.07" x2="24.39" y2="19.07" xlink:href="#linear-gradient"/><linearGradient id="linear-gradient-27" x1="25.17" y1="19.07" x2="26.02" y2="19.07" xlink:href="#linear-gradient"/><linearGradient id="linear-gradient-28" x1="21.94" y1="20.5" x2="22.79" y2="20.5" xlink:href="#linear-gradient"/><linearGradient id="linear-gradient-29" x1="23.57" y1="20.5" x2="24.42" y2="20.5" xlink:href="#linear-gradient"/><linearGradient id="linear-gradient-30" x1="25.2" y1="20.5" x2="26.05" y2="20.5" xlink:href="#linear-gradient"/><linearGradient id="linear-gradient-31" x1="28.12" y1="16.72" x2="28.77" y2="16.72" xlink:href="#linear-gradient"/><linearGradient id="linear-gradient-32" x1="29.37" y1="16.72" x2="30.03" y2="16.72" xlink:href="#linear-gradient"/><linearGradient id="linear-gradient-33" x1="30.63" y1="16.72" x2="31.29" y2="16.72" xlink:href="#linear-gradient"/><linearGradient id="linear-gradient-34" x1="28.14" y1="17.81" x2="28.8" y2="17.81" xlink:href="#linear-gradient"/><linearGradient id="linear-gradient-35" x1="29.4" y1="17.81" x2="30.06" y2="17.81" xlink:href="#linear-gradient"/><linearGradient id="linear-gradient-36" x1="30.65" y1="17.81" x2="31.31" y2="17.81" xlink:href="#linear-gradient"/><linearGradient id="linear-gradient-37" x1="28.16" y1="18.91" x2="28.82" y2="18.91" xlink:href="#linear-gradient"/><linearGradient id="linear-gradient-38" x1="29.42" y1="18.91" x2="30.08" y2="18.91" xlink:href="#linear-gradient"/><linearGradient id="linear-gradient-39" x1="30.68" y1="18.91" x2="31.34" y2="18.91" xlink:href="#linear-gradient"/><linearGradient id="linear-gradient-40" x1="28.19" y1="20.01" x2="28.85" y2="20.01" xlink:href="#linear-gradient"/><linearGradient id="linear-gradient-41" x1="29.45" y1="20.01" x2="30.1" y2="20.01" xlink:href="#linear-gradient"/><linearGradient id="linear-gradient-42" x1="30.7" y1="20.01" x2="31.36" y2="20.01" xlink:href="#linear-gradient"/><linearGradient id="linear-gradient-43" x1="28.21" y1="21.1" x2="28.87" y2="21.1" xlink:href="#linear-gradient"/><linearGradient id="linear-gradient-44" x1="29.47" y1="21.1" x2="30.13" y2="21.1" xlink:href="#linear-gradient"/><linearGradient id="linear-gradient-45" x1="30.73" y1="21.1" x2="31.39" y2="21.1" xlink:href="#linear-gradient"/></defs><path class="cls-1" d="M38.67,9.32a17.34,17.34,0,0,0-5.15-5.05,17.74,17.74,0,0,0-19,0A17.29,17.29,0,0,0,9.32,9.33a16.9,16.9,0,0,0,2.39,21.55,56.74,56.74,0,0,1,7.36,8.93l4.41,6.47a.73.73,0,0,0,1,0l4.42-6.48a57.2,57.2,0,0,1,7.36-8.93A16.89,16.89,0,0,0,38.67,9.32Zm-2.35,10A12.19,12.19,0,0,1,24.63,30.51a12.14,12.14,0,0,1-13-11.84A12.1,12.1,0,0,1,24,6.81,12.07,12.07,0,0,1,36.32,19.33Z"/><path class="cls-2" d="M36.32,19.33A12.19,12.19,0,0,1,24.63,30.51a12.14,12.14,0,0,1-13-11.84A12.1,12.1,0,0,1,24,6.81,12.07,12.07,0,0,1,36.32,19.33Z"/><ellipse class="cls-3" cx="23.87" cy="22.79" rx="10.23" ry="1.82"/><path class="cls-4" d="M15.43,22.05l0,.72v.59h-.34V22.09s-1.33-1,.31-2.91C15.43,19.18,16.79,21.08,15.43,22.05Z"/><rect class="cls-5" x="16.31" y="14.72" width="3.22" height="0.66"/><rect class="cls-6" x="15.73" y="15.38" width="4.38" height="7.92"/><rect class="cls-7" x="16.04" y="15.85" width="3.77" height="7.38"/><rect class="cls-8" x="16.31" y="16.36" width="0.66" height="0.72"/><rect class="cls-9" x="17.57" y="16.36" width="0.66" height="0.72"/><rect class="cls-10" x="18.82" y="16.36" width="0.66" height="0.72"/><rect class="cls-11" x="16.34" y="17.45" width="0.66" height="0.72"/><rect class="cls-12" x="17.59" y="17.45" width="0.66" height="0.72"/><rect class="cls-13" x="18.85" y="17.45" width="0.66" height="0.72"/><rect class="cls-14" x="16.36" y="18.55" width="0.66" height="0.72"/><rect class="cls-15" x="17.62" y="18.55" width="0.66" height="0.72"/><rect class="cls-16" x="18.87" y="18.55" width="0.66" height="0.72"/><rect class="cls-17" x="16.38" y="19.64" width="0.66" height="0.72"/><rect class="cls-18" x="17.64" y="19.64" width="0.66" height="0.72"/><rect class="cls-19" x="18.9" y="19.64" width="0.66" height="0.72"/><rect class="cls-20" x="16.41" y="20.74" width="0.66" height="0.72"/><rect class="cls-21" x="17.67" y="20.74" width="0.66" height="0.72"/><rect class="cls-22" x="18.92" y="20.74" width="0.66" height="0.72"/><rect class="cls-23" x="17.6" y="21.7" width="0.74" height="1.53"/><rect class="cls-5" x="21.81" y="12.21" width="4.18" height="0.86"/><rect class="cls-6" x="21.06" y="13.07" width="5.69" height="10.29"/><rect class="cls-7" x="21.46" y="13.68" width="4.89" height="9.58"/><rect class="cls-24" x="21.81" y="14.33" width="0.86" height="0.94"/><rect class="cls-25" x="23.44" y="14.33" width="0.86" height="0.94"/><rect class="cls-26" x="25.07" y="14.33" width="0.86" height="0.94"/><rect class="cls-27" x="21.84" y="15.76" width="0.86" height="0.94"/><rect class="cls-28" x="23.47" y="15.76" width="0.86" height="0.94"/><rect class="cls-29" x="25.1" y="15.76" width="0.86" height="0.94"/><rect class="cls-30" x="21.87" y="17.18" width="0.86" height="0.94"/><rect class="cls-31" x="23.5" y="17.18" width="0.86" height="0.94"/><rect class="cls-32" x="25.14" y="17.18" width="0.86" height="0.94"/><rect class="cls-33" x="21.9" y="18.6" width="0.86" height="0.94"/><rect class="cls-34" x="23.54" y="18.6" width="0.86" height="0.94"/><rect class="cls-35" x="25.17" y="18.6" width="0.86" height="0.94"/><rect class="cls-36" x="21.94" y="20.03" width="0.86" height="0.94"/><rect class="cls-37" x="23.57" y="20.03" width="0.86" height="0.94"/><rect class="cls-38" x="25.2" y="20.03" width="0.86" height="0.94"/><rect class="cls-23" x="23.48" y="21.27" width="0.96" height="1.99"/><rect class="cls-5" x="28.12" y="14.72" width="3.22" height="0.66"/><rect class="cls-6" x="27.54" y="15.38" width="4.38" height="7.92"/><rect class="cls-7" x="27.84" y="15.85" width="3.77" height="7.38"/><rect class="cls-39" x="28.12" y="16.36" width="0.66" height="0.72"/><rect class="cls-40" x="29.37" y="16.36" width="0.66" height="0.72"/><rect class="cls-41" x="30.63" y="16.36" width="0.66" height="0.72"/><rect class="cls-42" x="28.14" y="17.45" width="0.66" height="0.72"/><rect class="cls-43" x="29.4" y="17.45" width="0.66" height="0.72"/><rect class="cls-44" x="30.65" y="17.45" width="0.66" height="0.72"/><rect class="cls-45" x="28.16" y="18.55" width="0.66" height="0.72"/><rect class="cls-46" x="29.42" y="18.55" width="0.66" height="0.72"/><rect class="cls-47" x="30.68" y="18.55" width="0.66" height="0.72"/><rect class="cls-48" x="28.19" y="19.64" width="0.66" height="0.72"/><rect class="cls-49" x="29.45" y="19.64" width="0.66" height="0.72"/><rect class="cls-50" x="30.7" y="19.64" width="0.66" height="0.72"/><rect class="cls-51" x="28.21" y="20.74" width="0.66" height="0.72"/><rect class="cls-52" x="29.47" y="20.74" width="0.66" height="0.72"/><rect class="cls-53" x="30.73" y="20.74" width="0.66" height="0.72"/><rect class="cls-23" x="29.4" y="21.7" width="0.74" height="1.53"/><path class="cls-4" d="M33.07,21.89v.72l0,.59h-.34V21.93s-1.33-1.05.31-2.92C33.07,19,34.43,20.92,33.07,21.89Z"/><path class="cls-4" d="M16.42,22.91v.48l0,.4h-.34v-.86s-1.33-.7.31-2C16.42,21,17.78,22.25,16.42,22.91Z"/><path class="cls-4" d="M27.13,22.25v.62H27v-.48a.32.32,0,0,0-.07-.19.79.79,0,0,1,0-1,.24.24,0,0,1,.44,0A.78.78,0,0,1,27.13,22.25Z"/><path class="cls-4" d="M20.58,22.61v.53h-.14v-.41a.23.23,0,0,0-.06-.16.69.69,0,0,1,0-.84.21.21,0,0,1,.38,0A.67.67,0,0,1,20.58,22.61Z"/></svg>