<svg id="Layer_1" data-name="Layer 1" xmlns="http://www.w3.org/2000/svg" xmlns:xlink="http://www.w3.org/1999/xlink" viewBox="0 0 48 48"><defs><style>.cls-1{fill:#272362;}.cls-2{fill:#fff;}.cls-3{fill:#2e4143;}.cls-4{fill:#5d6868;}.cls-5{fill:#981e20;}.cls-6{fill:#e95440;}.cls-7{fill:url(#linear-gradient);}.cls-8{fill:url(#linear-gradient-2);}.cls-9{fill:url(#linear-gradient-3);}.cls-10{fill:url(#linear-gradient-4);}.cls-11{fill:url(#linear-gradient-5);}.cls-12{fill:url(#linear-gradient-6);}.cls-13{fill:url(#linear-gradient-7);}.cls-14{fill:url(#linear-gradient-8);}</style><linearGradient id="linear-gradient" x1="15.91" y1="21.77" x2="19.04" y2="21.77" gradientUnits="userSpaceOnUse"><stop offset="0" stop-color="#fff"/><stop offset="0.61" stop-color="#939598"/><stop offset="0.96" stop-color="#a7a9ac"/></linearGradient><linearGradient id="linear-gradient-2" x1="20.95" y1="21.77" x2="24.08" y2="21.77" xlink:href="#linear-gradient"/><linearGradient id="linear-gradient-3" x1="27.02" y1="16.02" x2="28.28" y2="16.02" xlink:href="#linear-gradient"/><linearGradient id="linear-gradient-4" x1="29.78" y1="13.99" x2="31.04" y2="13.99" xlink:href="#linear-gradient"/><linearGradient id="linear-gradient-5" x1="15.91" y1="23.25" x2="19.04" y2="23.25" xlink:href="#linear-gradient"/><linearGradient id="linear-gradient-6" x1="20.95" y1="23.25" x2="24.08" y2="23.25" xlink:href="#linear-gradient"/><linearGradient id="linear-gradient-7" x1="26.21" y1="13.71" x2="29.09" y2="13.71" xlink:href="#linear-gradient"/><linearGradient id="linear-gradient-8" x1="28.94" y1="11.8" x2="31.82" y2="11.8" xlink:href="#linear-gradient"/></defs><path class="cls-1" d="M38.67,9.32a17.34,17.34,0,0,0-5.15-5.05,17.74,17.74,0,0,0-19,0A17.29,17.29,0,0,0,9.32,9.33a16.9,16.9,0,0,0,2.39,21.55,56.74,56.74,0,0,1,7.36,8.93l4.41,6.47a.73.73,0,0,0,1,0l4.42-6.48a57.2,57.2,0,0,1,7.36-8.93A16.89,16.89,0,0,0,38.67,9.32Zm-2.35,10A12.19,12.19,0,0,1,24.63,30.51a12.14,12.14,0,0,1-13-11.84A12.1,12.1,0,0,1,24,6.81,12.07,12.07,0,0,1,36.32,19.33Z"/><path class="cls-2" d="M24,6.81A12.1,12.1,0,0,0,11.66,18.67a12.14,12.14,0,0,0,13,11.84A12.19,12.19,0,0,0,36.32,19.33,12.07,12.07,0,0,0,24,6.81ZM31.82,20v5l-17.21.07V20h.14l4.92-3.85V20h0l5.65-4.14V20H27V15h-.81l1.44-2.49L29.09,15h-.81v5h1.5V13h-.84l1.44-2.49L31.82,13H31V20Z"/><polygon class="cls-3" points="25.35 15.87 25.35 20.03 19.67 20.03 19.7 20.01 25.35 15.87"/><polygon class="cls-3" points="19.67 16.18 19.67 20.14 14.61 20.14 14.75 20.03 19.67 16.18"/><polygon class="cls-4" points="19.27 17.15 15.68 19.96 19.27 19.96 19.27 17.15"/><polygon class="cls-4" points="24.54 17.22 20.95 20.03 24.54 20.03 24.54 17.22"/><polygon class="cls-5" points="31.82 19.96 31.82 24.99 14.61 25.06 14.61 20.03 14.75 20.03 19.67 20.01 19.7 20.01 20.98 20 24.54 19.99 25.35 19.99 27.02 19.98 28.28 19.97 29.78 19.97 31.04 19.96 31.82 19.96"/><polygon class="cls-6" points="31.27 24.35 15.16 24.4 15.16 20.72 31.27 20.66 31.27 24.35"/><rect class="cls-1" x="27.02" y="14.83" width="1.26" height="5.15"/><rect class="cls-1" x="29.78" y="12.97" width="1.26" height="7.01"/><rect class="cls-7" x="15.91" y="21.21" width="3.13" height="1.12"/><rect class="cls-8" x="20.95" y="21.21" width="3.13" height="1.12"/><rect class="cls-9" x="27.02" y="15.46" width="1.26" height="1.12"/><rect class="cls-10" x="29.78" y="13.43" width="1.26" height="1.12"/><rect class="cls-11" x="15.91" y="22.69" width="3.13" height="1.12"/><rect class="cls-12" x="20.95" y="22.69" width="3.13" height="1.12"/><rect class="cls-5" x="30.18" y="15.75" width="0.46" height="1.65"/><rect class="cls-5" x="30.18" y="17.34" width="0.46" height="1.65"/><rect class="cls-5" x="27.42" y="16.79" width="0.46" height="1.65"/><rect class="cls-5" x="27.42" y="18.14" width="0.46" height="1.65"/><polygon class="cls-13" points="29.09 14.95 26.21 14.95 27.65 12.46 29.09 14.95"/><polygon class="cls-1" points="27.65 12.86 26.62 14.66 28.69 14.66 27.65 12.86"/><polygon class="cls-14" points="31.82 13.04 28.94 13.04 30.38 10.55 31.82 13.04"/><polygon class="cls-1" points="30.38 11.02 29.34 12.81 31.41 12.81 30.38 11.02"/></svg>